#tb 0: 1/25
#media_type 0: video
#codec_id 0: mpeg4
#dimensions 0: 352x288
#sar 0: 0/1
#tb 1: 1/44100
#media_type 1: audio
#codec_id 1: ac3
#sample_rate 1: 44100
#channel_layout 1: 4
#channel_layout_name 1: mono
1,       -256,       -256,     1536,      416, 0xef8ccbe3
0,          0,          0,        1,     8749, 0x57039d10, S=1,        8
1,       1280,       1280,     1536,      418, 0xa0ccc09d
0,          1,          1,        1,      975, 0x2fcf0617, F=0x0, S=1,        8
1,       2816,       2816,     1536,      418, 0xb873cb60
0,          2,          2,        1,     1167, 0x6d32482b, F=0x0, S=1,        8
1,       4352,       4352,     1536,      418, 0x1366c008
0,          3,          3,        1,     1274, 0xab1d80c9, F=0x0, S=1,        8
1,       5888,       5888,     1536,      418, 0xeb24c8da
0,          4,          4,        1,     1361, 0x9dc28a69, F=0x0, S=1,        8
1,       7424,       7424,     1536,      418, 0xc75ac55e
0,          5,          5,        1,     1415, 0x41d8ba3e, F=0x0, S=1,        8
1,       8960,       8960,     1536,      418, 0xe336d28d
1,      10496,      10496,     1536,      418, 0xd0acc452
0,          6,          6,        1,     1421, 0x8c83ad35, F=0x0, S=1,        8
1,      12032,      12032,     1536,      418, 0xae88c75f
0,          7,          7,        1,     1474, 0x1025b9b0, F=0x0, S=1,        8
1,      13568,      13568,     1536,      418, 0xa200b8f0
0,          8,          8,        1,     1467, 0xf3c0c714, F=0x0, S=1,        8
1,      15104,      15104,     1536,      418, 0xbbf9cd36
0,          9,          9,        1,     1469, 0x1b9faf72, F=0x0, S=1,        8
1,      16640,      16640,     1536,      418, 0x585ec129
0,         10,         10,        1,     1506, 0x18a9c359, F=0x0, S=1,        8
1,      18176,      18176,     1536,      418, 0xda1acf75
0,         11,         11,        1,     1520, 0x0ec1d39a, F=0x0, S=1,        8
1,      19712,      19712,     1536,      418, 0x9bb2cfeb
0,         12,         12,        1,     8554, 0xfab776e0, S=1,        8
1,      21248,      21248,     1536,      418, 0x83f2bf72
1,      22784,      22784,     1536,      418, 0xdb4dcbe8
0,         13,         13,        1,     1079, 0x13e40cb3, F=0x0, S=1,        8
1,      24320,      24320,     1536,      418, 0x6813cefa
0,         14,         14,        1,     1343, 0xf0058d2e, F=0x0, S=1,        8
1,      25856,      25856,     1536,      418, 0x3573d3c5
0,         15,         15,        1,     1486, 0x1da1c64e, F=0x0, S=1,        8
1,      27392,      27392,     1536,      418, 0x80c4c8d2
0,         16,         16,        1,     1491, 0x872dd43d, F=0x0, S=1,        8
1,      28928,      28928,     1536,      418, 0xaeaac123
0,         17,         17,        1,     1504, 0x5907c6ca, F=0x0, S=1,        8
1,      30464,      30464,     1536,      418, 0xe2c9c038
0,         18,         18,        1,     1481, 0xde66ba0a, F=0x0, S=1,        8
1,      32000,      32000,     1536,      418, 0x3f37c65b
0,         19,         19,        1,     1521, 0xf46dcef9, F=0x0, S=1,        8
1,      33536,      33536,     1536,      418, 0xd8e3d1f3
1,      35072,      35072,     1536,      418, 0x34bdcb46
0,         20,         20,        1,     1514, 0x001ed7b1, F=0x0, S=1,        8
1,      36608,      36608,     1536,      418, 0x4e92be94
0,         21,         21,        1,     1562, 0x3974e095, F=0x0, S=1,        8
1,      38144,      38144,     1536,      418, 0xa9d8c8d0
0,         22,         22,        1,     1562, 0xa94bf1fc, F=0x0, S=1,        8
1,      39680,      39680,     1536,      418, 0xe4c8bc20
0,         23,         23,        1,     1629, 0xdfcc0234, F=0x0, S=1,        8
1,      41216,      41216,     1536,      418, 0x2ccac571
0,         24,         24,        1,     9664, 0xbf319bb0, S=1,        8
1,      42752,      42752,     1536,      418, 0xd2a0cbff
0,         25,         25,        1,     1239, 0x1f9662f7, F=0x0, S=1,        8
1,      44288,      44288,     1536,      418, 0xffadb489
1,      45824,      45824,     1536,      418, 0x1246cae7
0,         26,         26,        1,     1568, 0xfbf8ed9d, F=0x0, S=1,        8
1,      47360,      47360,     1536,      418, 0xa74eb1f7
0,         27,         27,        1,     1641, 0x46aafde5, F=0x0, S=1,        8
1,      48896,      48896,     1536,      418, 0x98cfc032
0,         28,         28,        1,     1735, 0xa9363e9b, F=0x0, S=1,        8
1,      50432,      50432,     1536,      418, 0x42d6c12e
0,         29,         29,        1,     1760, 0x99b82cbc, F=0x0, S=1,        8
1,      51968,      51968,     1536,      418, 0x2180c196
0,         30,         30,        1,     1798, 0xc0ba5286, F=0x0, S=1,        8
1,      53504,      53504,     1536,      418, 0x35f2b4d1
0,         31,         31,        1,     1830, 0x4e8b4b80, F=0x0, S=1,        8
1,      55040,      55040,     1536,      418, 0x7b5fc73a
0,         32,         32,        1,     1835, 0x218a69cb, F=0x0, S=1,        8
1,      56576,      56576,     1536,      418, 0xbccebddd
1,      58112,      58112,     1536,      418, 0x40a1bcc7
0,         33,         33,        1,     1902, 0x8f2b67d2, F=0x0, S=1,        8
1,      59648,      59648,     1536,      418, 0xbcafbf6e
0,         34,         34,        1,     1886, 0xf4087481, F=0x0, S=1,        8
1,      61184,      61184,     1536,      418, 0xb8e4b630
0,         35,         35,        1,     1949, 0x142c8ac1, F=0x0, S=1,        8
1,      62720,      62720,     1536,      418, 0xc667bd39
0,         36,         36,        1,    10806, 0x603680c3, S=1,        8
1,      64256,      64256,     1536,      418, 0x2985c4ac
0,         37,         37,        1,     1413, 0xc52395a2, F=0x0, S=1,        8
1,      65792,      65792,     1536,      418, 0xb229b697
0,         38,         38,        1,     1731, 0xa26a2fb2, F=0x0, S=1,        8
1,      67328,      67328,     1536,      418, 0xd2eec6d8
0,         39,         39,        1,     1888, 0xa2995d2a, F=0x0, S=1,        8
1,      68864,      68864,     1536,      418, 0x74a9c1a9
1,      70400,      70400,     1536,      418, 0x2d1cc383
0,         40,         40,        1,     1989, 0x0274904a, F=0x0, S=1,        8
1,      71936,      71936,     1536,      418, 0x0ad9c88a
0,         41,         41,        1,     1949, 0x66fa8de9, F=0x0, S=1,        8
1,      73472,      73472,     1536,      418, 0x57accd5f
0,         42,         42,        1,     1956, 0x4e2e831d, F=0x0, S=1,        8
1,      75008,      75008,     1536,      416, 0x99f5b2b6
0,         43,         43,        1,     2012, 0x1d75ac7a, F=0x0, S=1,        8
1,      76544,      76544,     1536,      418, 0xe60fc1af
0,         44,         44,        1,     1995, 0xdc478fec, F=0x0, S=1,        8
1,      78080,      78080,     1536,      418, 0xebc8c568
0,         45,         45,        1,     2078, 0x416aaf11, F=0x0, S=1,        8
1,      79616,      79616,     1536,      418, 0x7361c949
0,         46,         46,        1,     2116, 0x1416cc81, F=0x0, S=1,        8
1,      81152,      81152,     1536,      418, 0xebb4bde9
1,      82688,      82688,     1536,      418, 0x72e8bad1
0,         47,         47,        1,     2024, 0xf1c1ad7d, F=0x0, S=1,        8
1,      84224,      84224,     1536,      418, 0xb479b641
0,         48,         48,        1,    11212, 0xc61a3f0a, S=1,        8
1,      85760,      85760,     1536,      418, 0xae06ca91
0,         49,         49,        1,     1423, 0x45fba9e4, F=0x0, S=1,        8
1,      87296,      87296,     1536,      418, 0x7bdcc3c7
